<svg width="48" height="48" viewBox="0 0 48 48" fill="none" xmlns="http://www.w3.org/2000/svg">
<rect x="7.5" y="0.5" width="34" height="47" rx="2.5" fill="#E9E9E9" stroke="black"/>
<path d="M14.3574 28V19.2727H20.4938V21.1818H16.7267V22.6818H20.1188V24.5909H16.7267V28H14.3574ZM21.3993 28V21.4545H23.7516V28H21.3993ZM22.5755 20.7727C22.2573 20.7727 21.9846 20.6676 21.7573 20.4574C21.53 20.2472 21.4164 19.9943 21.4164 19.6989C21.4164 19.4034 21.53 19.1506 21.7573 18.9403C21.9846 18.7301 22.2573 18.625 22.5755 18.625C22.8965 18.625 23.1692 18.7301 23.3936 18.9403C23.6209 19.1506 23.7346 19.4034 23.7346 19.6989C23.7346 19.9943 23.6209 20.2472 23.3936 20.4574C23.1692 20.6676 22.8965 20.7727 22.5755 20.7727ZM27.3024 19.2727V28H24.9501V19.2727H27.3024ZM31.6373 28.1193C30.9384 28.1193 30.3361 27.9858 29.8304 27.7188C29.3276 27.4489 28.9398 27.0625 28.6671 26.5597C28.3972 26.054 28.2623 25.4489 28.2623 24.7443C28.2623 24.0682 28.3986 23.4773 28.6713 22.9716C28.9441 22.4659 29.329 22.0724 29.8262 21.7912C30.3233 21.5099 30.91 21.3693 31.5861 21.3693C32.0804 21.3693 32.5279 21.446 32.9284 21.5994C33.329 21.7528 33.6713 21.9759 33.9554 22.2685C34.2395 22.5582 34.4583 22.9105 34.6117 23.3253C34.7651 23.7401 34.8418 24.2074 34.8418 24.7273V25.2727H28.9952V23.9773H32.677C32.6742 23.7898 32.6259 23.625 32.5321 23.483C32.4412 23.3381 32.3176 23.2259 32.1614 23.1463C32.008 23.0639 31.8333 23.0227 31.6373 23.0227C31.4469 23.0227 31.2722 23.0639 31.1131 23.1463C30.954 23.2259 30.8262 23.3366 30.7296 23.4787C30.6358 23.6207 30.5861 23.7869 30.5804 23.9773V25.375C30.5804 25.5852 30.6245 25.7727 30.7125 25.9375C30.8006 26.1023 30.927 26.2315 31.0918 26.3253C31.2566 26.419 31.4554 26.4659 31.6884 26.4659C31.8503 26.4659 31.998 26.4432 32.1316 26.3977C32.2679 26.3523 32.3844 26.2869 32.481 26.2017C32.5776 26.1136 32.6486 26.0085 32.6941 25.8864H34.8418C34.7679 26.3409 34.5932 26.7358 34.3176 27.071C34.0421 27.4034 33.677 27.6619 33.2225 27.8466C32.7708 28.0284 32.2424 28.1193 31.6373 28.1193Z" fill="black"/>
</svg>
