<svg width="48" height="48" viewBox="0 0 48 48" fill="none" xmlns="http://www.w3.org/2000/svg">
<rect x="7" width="35" height="48" rx="3" fill="#EA4B36"/>
<path d="M13.2207 28V19.2727H16.9877C17.6355 19.2727 18.2022 19.4006 18.688 19.6562C19.1738 19.9119 19.5517 20.2713 19.8216 20.7344C20.0914 21.1974 20.2264 21.7386 20.2264 22.358C20.2264 22.983 20.0872 23.5241 19.8088 23.9815C19.5332 24.4389 19.1454 24.7912 18.6454 25.0384C18.1483 25.2855 17.5673 25.4091 16.9025 25.4091H14.6525V23.5682H16.4252C16.7037 23.5682 16.9409 23.5199 17.1369 23.4233C17.3358 23.3239 17.4877 23.1832 17.5929 23.0014C17.7008 22.8196 17.7548 22.6051 17.7548 22.358C17.7548 22.108 17.7008 21.8949 17.5929 21.7188C17.4877 21.5398 17.3358 21.4034 17.1369 21.3097C16.9409 21.2131 16.7037 21.1648 16.4252 21.1648H15.59V28H13.2207ZM24.4537 28H21.0957V19.2727H24.4196C25.3173 19.2727 26.0929 19.4474 26.7463 19.7969C27.4025 20.1435 27.9082 20.6435 28.2633 21.2969C28.6213 21.9474 28.8002 22.7273 28.8002 23.6364C28.8002 24.5455 28.6227 25.3267 28.2676 25.9801C27.9125 26.6307 27.4096 27.1307 26.7591 27.4801C26.1085 27.8267 25.34 28 24.4537 28ZM23.465 25.9886H24.3684C24.8002 25.9886 25.1681 25.919 25.4721 25.7798C25.7789 25.6406 26.0119 25.4006 26.171 25.0597C26.3329 24.7187 26.4139 24.2443 26.4139 23.6364C26.4139 23.0284 26.3315 22.554 26.1667 22.2131C26.0048 21.8722 25.7662 21.6321 25.4508 21.4929C25.1383 21.3537 24.7548 21.2841 24.3002 21.2841H23.465V25.9886ZM29.8965 28V19.2727H36.0328V21.1818H32.2658V22.6818H35.6578V24.5909H32.2658V28H29.8965Z" fill="white"/>
</svg>
