<svg width="48" height="48" viewBox="0 0 48 48" fill="none" xmlns="http://www.w3.org/2000/svg">
<rect x="7" width="35" height="48" rx="3" fill="#E17919"/>
<path d="M17.75 33V15.5455H25.2841C26.5795 15.5455 27.7131 15.8011 28.6847 16.3125C29.6563 16.8239 30.4119 17.5426 30.9517 18.4688C31.4915 19.3949 31.7614 20.4773 31.7614 21.7159C31.7614 22.9659 31.483 24.0483 30.9261 24.9631C30.375 25.8778 29.5994 26.5824 28.5994 27.0767C27.6051 27.571 26.4432 27.8182 25.1136 27.8182H20.6136V24.1364H24.1591C24.7159 24.1364 25.1903 24.0398 25.5824 23.8466C25.9801 23.6477 26.2841 23.3665 26.4943 23.0028C26.7102 22.6392 26.8182 22.2102 26.8182 21.7159C26.8182 21.2159 26.7102 20.7898 26.4943 20.4375C26.2841 20.0795 25.9801 19.8068 25.5824 19.6193C25.1903 19.4261 24.7159 19.3295 24.1591 19.3295H22.4886V33H17.75Z" fill="white"/>
</svg>
